<svg width="1440" height="827" viewBox="0 0 1440 827" fill="none" xmlns="http://www.w3.org/2000/svg">
<rect width="1440" height="590" fill="#1C2230"/>
<path d="M1440 826.305L1428 794.291C1416 762.277 1392 698.248 1368.01 660.931C1344.01 623.214 1320.01 613.21 1296.01 623.514C1272.01 634.219 1248.02 666.234 1224.02 660.931C1200.02 655.229 1176.02 613.21 1152.02 639.522C1128.02 666.234 1104.03 762.277 1080.03 783.586C1056.03 805.296 1032.03 751.272 1008.03 708.953C984.036 666.234 960.038 634.219 936.04 650.226C912.042 666.234 888.044 730.262 864.046 751.572C840.048 773.281 816.05 751.272 792.052 724.96C768.053 698.248 744.055 666.234 720.057 676.938C696.059 687.243 672.061 741.267 648.063 767.579C624.065 794.291 600.067 794.291 576.069 788.988C552.071 783.286 528.073 773.281 504.074 740.967C480.076 709.253 456.078 655.229 432.08 655.529C408.082 655.229 384.084 709.253 360.086 730.262C336.088 751.272 312.09 741.267 288.092 740.967C264.094 741.267 240.095 751.272 216.097 751.572C192.099 751.272 168.101 741.267 144.103 756.974C120.105 773.281 96.1069 815.3 72.1089 821.003C48.1107 826.305 24.1127 794.291 12.1137 778.284L0.11463 762.276L0.114649 538.176L12.1137 538.176C24.1127 538.176 48.1107 538.176 72.1089 538.176C96.107 538.176 120.105 538.176 144.103 538.176C168.101 538.176 192.099 538.176 216.097 538.176C240.095 538.176 264.094 538.176 288.092 538.176C312.09 538.176 336.088 538.176 360.086 538.176C384.084 538.176 408.082 538.176 432.08 538.176C456.078 538.176 480.076 538.176 504.074 538.176C528.073 538.176 552.071 538.176 576.069 538.176C600.067 538.176 624.065 538.176 648.063 538.176C672.061 538.176 696.059 538.176 720.057 538.176C744.055 538.176 768.053 538.176 792.052 538.176C816.05 538.176 840.048 538.176 864.046 538.176C888.044 538.176 912.042 538.176 936.04 538.176C960.038 538.176 984.036 538.176 1008.03 538.176C1032.03 538.176 1056.03 538.176 1080.03 538.176C1104.03 538.176 1128.02 538.176 1152.02 538.176C1176.02 538.176 1200.02 538.176 1224.02 538.176C1248.02 538.176 1272.01 538.176 1296.01 538.176C1320.01 538.176 1344.01 538.176 1368.01 538.176C1392 538.176 1416 538.176 1428 538.176L1440 538.176L1440 826.305Z" fill="#1C2230"/>
</svg>
