<svg width="375" height="345" viewBox="0 0 375 345" fill="none" xmlns="http://www.w3.org/2000/svg">
<rect x="-276" width="949" height="189" fill="#1C2230"/>
<path d="M673 344.9L665.092 323.8C657.183 302.7 641.367 260.5 625.55 235.905C609.733 211.047 593.917 204.453 578.1 211.245C562.283 218.3 546.467 239.4 530.65 235.905C514.833 232.147 499.017 204.453 483.2 221.795C467.383 239.4 451.567 302.7 435.75 316.745C419.933 331.053 404.117 295.447 388.3 267.555C372.483 239.4 356.667 218.3 340.85 228.85C325.033 239.4 309.217 281.6 293.4 295.645C277.583 309.953 261.767 295.447 245.95 278.105C230.133 260.5 214.317 239.4 198.5 246.455C182.683 253.247 166.867 288.853 151.05 306.195C135.233 323.8 119.417 323.8 103.6 320.305C87.7833 316.547 71.9667 309.953 56.15 288.655C40.3334 267.753 24.5167 232.147 8.70002 232.345C-7.11663 232.147 -22.9333 267.753 -38.75 281.6C-54.5666 295.447 -70.3833 288.853 -86.1999 288.655C-102.017 288.853 -117.833 295.447 -133.65 295.645C-149.467 295.447 -165.283 288.853 -181.1 299.205C-196.917 309.953 -212.733 337.647 -228.55 341.405C-244.367 344.9 -260.183 323.8 -268.092 313.25L-276 302.7L-276 155L-268.092 155C-260.183 155 -244.367 155 -228.55 155C-212.733 155 -196.917 155 -181.1 155C-165.283 155 -149.467 155 -133.65 155C-117.833 155 -102.017 155 -86.1999 155C-70.3833 155 -54.5666 155 -38.75 155C-22.9333 155 -7.11662 155 8.70003 155C24.5167 155 40.3334 155 56.15 155C71.9667 155 87.7833 155 103.6 155C119.417 155 135.233 155 151.05 155C166.867 155 182.683 155 198.5 155C214.317 155 230.133 155 245.95 155C261.767 155 277.583 155 293.4 155C309.217 155 325.033 155 340.85 155C356.667 155 372.483 155 388.3 155C404.117 155 419.933 155 435.75 155C451.567 155 467.383 155 483.2 155C499.017 155 514.833 155 530.65 155C546.467 155 562.283 155 578.1 155C593.917 155 609.733 155 625.55 155C641.367 155 657.183 155 665.092 155L673 155L673 344.9Z" fill="#1C2230"/>
</svg>
