<svg width="92" height="29" viewBox="0 0 92 29" fill="none" xmlns="http://www.w3.org/2000/svg">
<path d="M43.8242 14.1895H38.1992V20H35.2695V5.78125H44.5273V8.1543H38.1992V11.8262H43.8242V14.1895ZM49.0195 20H46.1875V5H49.0195V20ZM57.4766 20C57.3464 19.7461 57.252 19.4303 57.1934 19.0527C56.5098 19.8145 55.6211 20.1953 54.5273 20.1953C53.4922 20.1953 52.6328 19.8958 51.9492 19.2969C51.2721 18.6979 50.9336 17.9427 50.9336 17.0312C50.9336 15.9115 51.347 15.0521 52.1738 14.4531C53.0072 13.8542 54.2083 13.5514 55.7773 13.5449H57.0762V12.9395C57.0762 12.4512 56.9492 12.0605 56.6953 11.7676C56.4479 11.4746 56.054 11.3281 55.5137 11.3281C55.0384 11.3281 54.6641 11.4421 54.3906 11.6699C54.1237 11.8978 53.9902 12.2103 53.9902 12.6074H51.168C51.168 11.9954 51.3568 11.429 51.7344 10.9082C52.112 10.3874 52.6458 9.98047 53.3359 9.6875C54.026 9.38802 54.8008 9.23828 55.6602 9.23828C56.9622 9.23828 57.9941 9.56706 58.7559 10.2246C59.5241 10.8757 59.9082 11.7936 59.9082 12.9785V17.5586C59.9147 18.5612 60.0547 19.3197 60.3281 19.834V20H57.4766ZM55.1426 18.0371C55.5592 18.0371 55.9434 17.946 56.2949 17.7637C56.6465 17.5749 56.9069 17.3242 57.0762 17.0117V15.1953H56.0215C54.6087 15.1953 53.8568 15.6836 53.7656 16.6602L53.7559 16.8262C53.7559 17.1777 53.8796 17.4674 54.127 17.6953C54.3743 17.9232 54.7129 18.0371 55.1426 18.0371ZM65.875 16.5527L67.8379 9.43359H70.7871L67.2227 20H64.5273L60.9629 9.43359H63.9121L65.875 16.5527ZM76.7637 20.1953C75.2142 20.1953 73.9512 19.7201 72.9746 18.7695C72.0046 17.819 71.5195 16.5527 71.5195 14.9707V14.6973C71.5195 13.6361 71.7246 12.6888 72.1348 11.8555C72.5449 11.0156 73.1243 10.3711 73.873 9.92188C74.6283 9.46615 75.4876 9.23828 76.4512 9.23828C77.8965 9.23828 79.0326 9.69401 79.8594 10.6055C80.6927 11.5169 81.1094 12.8092 81.1094 14.4824V15.6348H74.3809C74.472 16.3249 74.7454 16.8783 75.2012 17.2949C75.6634 17.7116 76.2461 17.9199 76.9492 17.9199C78.0365 17.9199 78.8861 17.526 79.498 16.7383L80.8848 18.291C80.4616 18.89 79.8887 19.3587 79.166 19.6973C78.4434 20.0293 77.6426 20.1953 76.7637 20.1953ZM76.4414 11.5234C75.8815 11.5234 75.4258 11.7122 75.0742 12.0898C74.7292 12.4674 74.5078 13.0078 74.4102 13.7109H78.3359V13.4863C78.3229 12.8613 78.1536 12.3796 77.8281 12.041C77.5026 11.696 77.0404 11.5234 76.4414 11.5234ZM88.4434 17.0801C88.4434 16.735 88.2708 16.4648 87.9258 16.2695C87.5872 16.0677 87.0404 15.8887 86.2852 15.7324C83.7721 15.2051 82.5156 14.1374 82.5156 12.5293C82.5156 11.5918 82.903 10.8105 83.6777 10.1855C84.459 9.55404 85.4779 9.23828 86.7344 9.23828C88.0755 9.23828 89.1465 9.55404 89.9473 10.1855C90.7546 10.8171 91.1582 11.6374 91.1582 12.6465H88.3359C88.3359 12.2428 88.2057 11.9108 87.9453 11.6504C87.6849 11.3835 87.278 11.25 86.7246 11.25C86.2493 11.25 85.8815 11.3574 85.6211 11.5723C85.3607 11.7871 85.2305 12.0605 85.2305 12.3926C85.2305 12.7051 85.377 12.959 85.6699 13.1543C85.9694 13.3431 86.4707 13.5091 87.1738 13.6523C87.877 13.7891 88.4694 13.9453 88.9512 14.1211C90.4421 14.668 91.1875 15.6152 91.1875 16.9629C91.1875 17.9264 90.7741 18.7077 89.9473 19.3066C89.1204 19.8991 88.0527 20.1953 86.7441 20.1953C85.8587 20.1953 85.071 20.0391 84.3809 19.7266C83.6973 19.4076 83.1602 18.9746 82.7695 18.4277C82.3789 17.8743 82.1836 17.2786 82.1836 16.6406H84.8594C84.8854 17.1419 85.071 17.526 85.416 17.793C85.7611 18.0599 86.2233 18.1934 86.8027 18.1934C87.3431 18.1934 87.75 18.0924 88.0234 17.8906C88.3034 17.6823 88.4434 17.4121 88.4434 17.0801Z" fill="white"/>
<path d="M27.1682 15.2193L25.3557 6.62072C25.0057 4.74479 23.6577 3.625 21.75 3.625H7.25C6.29844 3.625 5.49415 3.89064 4.86543 4.41457C4.23672 4.9385 3.82495 5.67822 3.64313 6.61732L1.83063 15.2193C1.81838 15.2809 1.81231 15.3435 1.8125 15.4062V21.75C1.8125 22.7114 2.19442 23.6334 2.87424 24.3133C3.55406 24.9931 4.47609 25.375 5.4375 25.375H23.5625C24.5239 25.375 25.4459 24.9931 26.1258 24.3133C26.8056 23.6334 27.1875 22.7114 27.1875 21.75V15.4062C27.1873 15.3435 27.1809 15.2808 27.1682 15.2193ZM5.41825 6.98379V6.96793C5.61932 5.92404 6.20045 5.43863 7.24717 5.43863H21.75C22.8041 5.43863 23.3852 5.92291 23.5778 6.96283C23.5778 6.9702 23.5806 6.97756 23.5818 6.98492L25.1071 14.2281C25.114 14.2611 25.1135 14.2953 25.1055 14.328C25.0976 14.3608 25.0824 14.3914 25.0611 14.4175C25.0398 14.4437 25.013 14.4648 24.9825 14.4792C24.9521 14.4937 24.9188 14.5012 24.8851 14.5011H18.125C17.886 14.4999 17.6564 14.5936 17.4865 14.7616C17.3165 14.9296 17.2203 15.1582 17.2188 15.3972C17.2188 16.1182 16.9323 16.8098 16.4225 17.3196C15.9126 17.8295 15.2211 18.1159 14.5 18.1159C13.7789 18.1159 13.0874 17.8295 12.5776 17.3196C12.0677 16.8098 11.7813 16.1182 11.7813 15.3972C11.7807 15.2788 11.7567 15.1616 11.7109 15.0525C11.665 14.9433 11.5981 14.8442 11.5139 14.7609C11.4298 14.6776 11.3301 14.6117 11.2204 14.5669C11.1108 14.5221 10.9934 14.4994 10.875 14.5H4.11495C4.08123 14.5 4.04793 14.4926 4.01747 14.4781C3.98701 14.4636 3.96017 14.4425 3.93889 14.4164C3.91762 14.3902 3.90245 14.3597 3.8945 14.3269C3.88654 14.2941 3.886 14.26 3.89291 14.227L5.41825 6.98379Z" fill="white"/>
<path d="M20.8438 9.0625H8.15625C7.9159 9.0625 7.68539 8.96702 7.51543 8.79707C7.34548 8.62711 7.25 8.3966 7.25 8.15625C7.25 7.9159 7.34548 7.68539 7.51543 7.51543C7.68539 7.34548 7.9159 7.25 8.15625 7.25H20.8438C21.0841 7.25 21.3146 7.34548 21.4846 7.51543C21.6545 7.68539 21.75 7.9159 21.75 8.15625C21.75 8.3966 21.6545 8.62711 21.4846 8.79707C21.3146 8.96702 21.0841 9.0625 20.8438 9.0625ZM21.75 12.6875H7.25C7.00965 12.6875 6.77914 12.592 6.60918 12.4221C6.43923 12.2521 6.34375 12.0216 6.34375 11.7812C6.34375 11.5409 6.43923 11.3104 6.60918 11.1404C6.77914 10.9705 7.00965 10.875 7.25 10.875H21.75C21.9904 10.875 22.2209 10.9705 22.3908 11.1404C22.5608 11.3104 22.6562 11.5409 22.6562 11.7812C22.6562 12.0216 22.5608 12.2521 22.3908 12.4221C22.2209 12.592 21.9904 12.6875 21.75 12.6875Z" fill="white"/>
</svg>
