<?xml version="1.0" standalone="no"?><svg xmlns="http://www.w3.org/2000/svg" viewBox="0 0 1440 320"><path fill="#0099ff" fill-opacity="1" d="M0,32L12,64C24,96,48,160,72,197.3C96,235,120,245,144,234.7C168,224,192,192,216,197.3C240,203,264,245,288,218.7C312,192,336,96,360,74.7C384,53,408,107,432,149.3C456,192,480,224,504,208C528,192,552,128,576,106.7C600,85,624,107,648,133.3C672,160,696,192,720,181.3C744,171,768,117,792,90.7C816,64,840,64,864,69.3C888,75,912,85,936,117.3C960,149,984,203,1008,202.7C1032,203,1056,149,1080,128C1104,107,1128,117,1152,117.3C1176,117,1200,107,1224,106.7C1248,107,1272,117,1296,101.3C1320,85,1344,43,1368,37.3C1392,32,1416,64,1428,80L1440,96L1440,320L1428,320C1416,320,1392,320,1368,320C1344,320,1320,320,1296,320C1272,320,1248,320,1224,320C1200,320,1176,320,1152,320C1128,320,1104,320,1080,320C1056,320,1032,320,1008,320C984,320,960,320,936,320C912,320,888,320,864,320C840,320,816,320,792,320C768,320,744,320,720,320C696,320,672,320,648,320C624,320,600,320,576,320C552,320,528,320,504,320C480,320,456,320,432,320C408,320,384,320,360,320C336,320,312,320,288,320C264,320,240,320,216,320C192,320,168,320,144,320C120,320,96,320,72,320C48,320,24,320,12,320L0,320Z"></path></svg>